<svg width="800" height="526" viewBox="0 0 800 526" fill="none" xmlns="http://www.w3.org/2000/svg">
<path d="M740.086 0.929688H59.9141C26.8234 0.929688 0 27.7531 0 60.8438V465.156C0 498.245 26.8234 525.07 59.9141 525.07H740.086C773.175 525.07 800 498.247 800 465.156V60.8438C800 27.7531 773.177 0.929688 740.086 0.929688Z" fill="#F5F5F5"/>
<path d="M476.577 148.205C413.197 105.952 327.592 123.227 285.367 186.495C264.188 218.075 272.797 260.986 304.484 282.113C336.148 303.239 378.922 294.659 400.048 262.969C421.175 231.28 463.977 222.806 495.639 243.822C527.355 264.949 535.884 307.859 514.728 339.439C556.981 276.066 539.902 190.459 476.577 148.205Z" fill="#FF4B55"/>
<path d="M285.366 186.497C264.186 218.077 272.795 260.987 304.483 282.114C336.147 303.241 378.92 294.661 400.047 262.97C421.173 231.281 463.975 222.808 495.637 243.823C527.353 264.95 535.883 307.861 514.727 339.441C472.53 402.928 386.953 419.986 323.573 377.733C260.252 335.484 243.114 249.878 285.366 186.497Z" fill="#41479B"/>
<path d="M546.75 96.1078L571.805 133.767C573.909 136.931 573.058 141.203 569.9 143.317L563.547 147.572C560.377 149.694 556.086 148.841 553.97 145.666L528.884 108.016C526.773 104.848 527.63 100.569 530.795 98.4547L537.18 94.1922C540.352 92.075 544.637 92.9344 546.75 96.1078Z" fill="#464655"/>
<path d="M585.406 154.172L610.542 191.808C612.664 194.986 611.798 199.286 608.609 201.392L602.228 205.609C599.062 207.703 594.8 206.842 592.692 203.687L567.57 166.09C565.455 162.925 566.305 158.642 569.472 156.525L575.839 152.269C579.005 150.151 583.289 151.003 585.406 154.172Z" fill="#464655"/>
<path d="M573.577 78.2045L637.372 173.944C639.484 177.112 638.627 181.394 635.458 183.506L629.048 187.778C625.88 189.89 621.597 189.034 619.484 185.865L555.667 90.1327C553.553 86.9624 554.413 82.678 557.584 80.5655L564.014 76.2858C567.184 74.1811 571.464 75.0358 573.577 78.2045Z" fill="#464655"/>
<path d="M600.33 60.3296L625.439 98.0624C627.555 101.241 626.686 105.531 623.5 107.636L617.114 111.855C613.945 113.948 609.681 113.087 607.575 109.926L582.447 72.2437C580.333 69.0749 581.191 64.7921 584.359 62.678L590.764 58.4093C593.933 56.2968 598.217 57.1546 600.33 60.3296Z" fill="#464655"/>
<path d="M639.011 118.517L664.081 156.172C666.191 159.337 665.336 163.612 662.175 165.726L655.808 169.983C652.638 172.101 648.347 171.247 646.234 168.072L621.164 130.417C619.056 127.251 619.909 122.976 623.07 120.862L629.438 116.606C632.609 114.486 636.897 115.339 639.011 118.517Z" fill="#464655"/>
<path d="M207.377 322.347L271.164 417.983C273.277 421.15 272.423 425.431 269.255 427.545L262.867 431.811C259.698 433.927 255.416 433.072 253.3 429.902L189.513 334.266C187.398 331.098 188.253 326.817 191.422 324.703L197.811 320.437C200.978 318.322 205.262 319.177 207.377 322.347Z" fill="#464655"/>
<path d="M180.597 340.234L205.641 377.798C207.752 380.964 206.9 385.237 203.739 387.355L197.386 391.608C194.219 393.728 189.931 392.876 187.814 389.706L162.741 352.151C160.625 348.984 161.478 344.701 164.647 342.586L171.031 338.323C174.198 336.209 178.483 337.064 180.597 340.234Z" fill="#464655"/>
<path d="M219.298 398.319L244.37 435.978C246.48 439.144 245.625 443.42 242.461 445.533L236.089 449.794C232.919 451.912 228.633 451.058 226.517 447.884L201.43 410.233C199.319 407.065 200.173 402.786 203.339 400.673L209.727 396.408C212.898 394.287 217.184 395.145 219.298 398.319Z" fill="#464655"/>
<path d="M153.816 358.117L217.563 453.758C219.673 456.923 218.819 461.201 215.658 463.317L209.288 467.576C206.119 469.695 201.833 468.84 199.717 465.67L135.933 370.042C133.819 366.873 134.677 362.59 137.845 360.476L144.255 356.205C147.42 354.092 151.703 354.948 153.816 358.117Z" fill="#464655"/>
<path d="M189.522 191.814L253.3 96.0999C255.414 92.928 259.698 92.0718 262.869 94.1874L269.255 98.4515C272.422 100.566 273.275 104.847 271.164 108.014L207.361 203.675C205.252 206.836 200.984 207.695 197.817 205.598L191.456 201.387C188.272 199.281 187.406 194.989 189.522 191.814Z" fill="#464655"/>
<path d="M162.73 173.95L226.519 78.2171C228.633 75.0452 232.92 74.1889 236.091 76.3077L242.461 80.5671C245.623 82.6811 246.477 86.9577 244.367 90.1233L180.595 185.861C178.481 189.033 174.197 189.89 171.027 187.773L164.639 183.509C161.473 181.397 160.619 177.117 162.73 173.95Z" fill="#464655"/>
<path d="M135.922 156.162L199.717 60.3344C201.831 57.1609 206.12 56.3031 209.291 58.4219L215.661 62.6812C218.822 64.7953 219.677 69.0672 217.57 72.2344L153.814 168.077C151.703 171.248 147.417 172.109 144.247 169.995L137.841 165.723C134.67 163.611 133.814 159.331 135.922 156.162Z" fill="#464655"/>
<path d="M528.895 417.981L553.969 380.427C556.086 377.256 560.373 376.405 563.541 378.525L569.894 382.778C573.055 384.894 573.905 389.169 571.794 392.334L546.75 429.897C544.636 433.067 540.352 433.923 537.183 431.808L530.798 427.545C527.633 425.431 526.78 421.15 528.895 417.981Z" fill="#464655"/>
<path d="M567.567 360.095L592.681 322.355C594.792 319.183 599.078 318.323 602.248 320.437L608.648 324.703C611.819 326.817 612.675 331.103 610.559 334.272L585.392 371.953C583.281 375.112 579.014 375.97 575.847 373.87L569.5 369.664C566.32 367.555 565.455 363.269 567.567 360.095Z" fill="#464655"/>
<path d="M555.666 435.965L580.755 398.312C582.867 395.142 587.15 394.284 590.32 396.398L596.733 400.675C599.9 402.787 600.756 407.065 598.647 410.236L573.573 447.892C571.463 451.062 567.183 451.922 564.011 449.811L557.581 445.531C554.412 443.42 553.553 439.136 555.666 435.965Z" fill="#464655"/>
<path d="M594.38 377.786L619.483 340.22C621.598 337.056 625.877 336.203 629.044 338.314L635.453 342.586C638.625 344.7 639.48 348.986 637.361 352.156L612.258 389.723C610.144 392.887 605.864 393.74 602.698 391.63L596.287 387.358C593.116 385.242 592.261 380.956 594.38 377.786Z" fill="#464655"/>
<path d="M582.455 453.751L607.572 416.164C609.681 413.009 613.942 412.15 617.108 414.242L623.492 418.461C626.68 420.567 627.547 424.862 625.428 428.04L600.33 465.678C598.217 468.847 593.934 469.701 590.766 467.59L584.363 463.322C581.191 461.206 580.336 456.92 582.455 453.751Z" fill="#464655"/>
<path d="M621.178 395.764L646.233 358.131C648.347 354.958 652.636 354.1 655.806 356.22L662.169 360.473C665.333 362.589 666.184 366.869 664.072 370.034L638.995 407.617C636.888 410.78 632.616 411.637 629.448 409.537L623.105 405.334C619.928 403.226 619.064 398.937 621.178 395.764Z" fill="#464655"/>
</svg>
